<svg width="137" height="44" viewBox="0 0 137 44" fill="none" xmlns="http://www.w3.org/2000/svg">
<path d="M119.84 23.58C119.84 26.63 117.96 28.89 114.39 28.89C110.82 28.89 108.9 26.63 108.9 23.58V15.58H111.77V23.42C111.738 23.7806 111.782 24.1438 111.898 24.4866C112.015 24.8294 112.201 25.1443 112.445 25.4112C112.69 25.6782 112.987 25.8913 113.319 26.0371C113.65 26.1829 114.008 26.2582 114.37 26.2582C114.732 26.2582 115.09 26.1829 115.421 26.0371C115.753 25.8913 116.05 25.6782 116.295 25.4112C116.539 25.1443 116.725 24.8294 116.842 24.4866C116.958 24.1438 117.002 23.7806 116.97 23.42V15.6H119.84V23.58Z" fill="#F27D16"/>
<path d="M125.66 23L120.78 15.58H124.34L127.11 20.42L130 15.6H133.38L128.52 23V28.54H125.66V23Z" fill="#F27D16"/>
<path d="M59.3 23.49H61.64V25.6C60.8181 26.037 59.9008 26.2637 58.97 26.26C58.4255 26.2738 57.8841 26.1738 57.3805 25.9662C56.8769 25.7586 56.4222 25.4481 56.0456 25.0545C55.669 24.661 55.3788 24.1931 55.1936 23.6809C55.0084 23.1687 54.9322 22.6234 54.97 22.08C54.9368 21.5377 55.0162 20.9943 55.2031 20.4841C55.39 19.974 55.6804 19.5079 56.056 19.1154C56.4317 18.7228 56.8845 18.4122 57.386 18.203C57.8874 17.9939 58.4267 17.8907 58.97 17.9C59.5521 17.8609 60.1358 17.9496 60.68 18.16C61.2245 18.384 61.7127 18.7255 62.11 19.16L64.11 16.96C62.6836 15.7682 60.8553 15.1671 59 15.28C55 15.28 52 17.95 52 22.08C52 26.21 55 28.89 59 28.89C60.8899 28.9182 62.7579 28.4821 64.44 27.62V20.86H59.34V23.49H59.3Z" fill="#1D65A1"/>
<path d="M69.34 14.71H66.57V28.56H69.34V14.71Z" fill="#1D65A1"/>
<path d="M80.84 24.1C80.8981 23.1122 80.6582 22.1298 80.1514 21.28C79.6447 20.4301 78.8944 19.752 77.9978 19.3336C77.1012 18.9151 76.0996 18.7755 75.1227 18.9329C74.1458 19.0903 73.2387 19.5374 72.5189 20.2163C71.7991 20.8952 71.2998 21.7747 71.0856 22.7407C70.8714 23.7067 70.9523 24.7147 71.3177 25.6343C71.6831 26.5538 72.3162 27.3424 73.135 27.8979C73.9538 28.4535 74.9205 28.7503 75.91 28.75C76.5465 28.8004 77.1865 28.7169 77.7888 28.5049C78.391 28.2928 78.9422 27.9569 79.4067 27.5188C79.8711 27.0807 80.2387 26.5501 80.4855 25.9613C80.7324 25.3724 80.8532 24.7384 80.84 24.1V24.1ZM73.7 24.1C73.7 23.5139 73.9328 22.9517 74.3473 22.5373C74.7617 22.1228 75.3239 21.89 75.91 21.89C76.4961 21.89 77.0582 22.1228 77.4727 22.5373C77.8872 22.9517 78.12 23.5139 78.12 24.1C78.1448 24.4051 78.1039 24.712 78 25C77.9013 25.282 77.7407 25.5382 77.53 25.75C77.3197 25.9626 77.0678 26.1294 76.79 26.24C76.514 26.3508 76.2168 26.3986 75.92 26.38C75.6207 26.4049 75.3197 26.3621 75.0393 26.2548C74.7588 26.1474 74.5062 25.9783 74.3 25.76C74.0893 25.5482 73.9287 25.292 73.83 25.01C73.7228 24.7193 73.6785 24.4091 73.7 24.1V24.1Z" fill="#1D65A1"/>
<path d="M88.3 19.45C87.77 19.408 87.2376 19.4932 86.7471 19.6984C86.2566 19.9037 85.8222 20.223 85.48 20.63V20.63V14.71H82.71V28.56H85.25V27.38C85.5659 27.799 85.9728 28.1409 86.44 28.38C86.9148 28.6204 87.4379 28.7503 87.97 28.76C88.5671 28.7744 89.1607 28.6633 89.7122 28.434C90.2638 28.2047 90.7611 27.8622 91.172 27.4286C91.5829 26.9951 91.8983 26.4802 92.0977 25.9172C92.2972 25.3541 92.3763 24.7555 92.33 24.16C92.38 21.71 90.83 19.45 88.3 19.45ZM87.45 26.35C87.1532 26.3686 86.856 26.3208 86.58 26.21C86.3022 26.0994 86.0503 25.9326 85.84 25.72C85.6366 25.5025 85.4771 25.2478 85.37 24.97C85.2703 24.6914 85.2294 24.3952 85.25 24.1C85.2485 23.8097 85.3052 23.5221 85.4169 23.2541C85.5285 22.9862 85.6928 22.7433 85.9 22.54C86.1036 22.3347 86.3458 22.1717 86.6127 22.0605C86.8796 21.9493 87.1659 21.8921 87.455 21.8921C87.7441 21.8921 88.0304 21.9493 88.2973 22.0605C88.5642 22.1717 88.8064 22.3347 89.01 22.54C89.2172 22.7433 89.3814 22.9862 89.4931 23.2541C89.6047 23.5221 89.6615 23.8097 89.66 24.1C89.6905 24.3987 89.6493 24.7004 89.54 24.98C89.4413 25.262 89.2807 25.5182 89.07 25.73C88.8638 25.9483 88.6112 26.1174 88.3307 26.2248C88.0503 26.3321 87.7492 26.3749 87.45 26.35V26.35Z" fill="#1D65A1"/>
<path d="M102.1 28.56V24.05C102.1 21.1 101.25 19.45 98.01 19.45C96.5822 19.4142 95.1933 19.9176 94.12 20.86L95.57 22.36C95.8429 22.0281 96.1839 21.7587 96.57 21.57C96.959 21.3789 97.3866 21.2797 97.82 21.28C98.0404 21.2699 98.2607 21.3004 98.47 21.37C98.679 21.4416 98.8701 21.5576 99.03 21.71C99.1916 21.8595 99.3211 22.0403 99.4105 22.2414C99.4999 22.4426 99.5474 22.6599 99.55 22.88C97.25 22.88 93.55 22.93 93.55 26.02C93.55 27.81 95.05 28.75 96.69 28.75C97.2333 28.7814 97.776 28.6784 98.27 28.45C98.7603 28.2254 99.1866 27.8816 99.51 27.45V27.45V28.58L102.1 28.56ZM97.5 26.91C96.89 26.91 96.18 26.59 96.18 25.91C96.18 24.69 98.06 24.64 98.91 24.64H99.56V25.21C99.56 26.35 98.58 26.91 97.5 26.91Z" fill="#1D65A1"/>
<path d="M106.65 14.71H103.88V28.56H106.65V14.71Z" fill="#1D65A1"/>
<path d="M46.44 18C46.4469 15.5229 45.8341 13.0834 44.6573 10.9037C43.4805 8.72391 41.7771 6.87318 39.7022 5.51999C37.6274 4.16679 35.247 3.35413 32.7778 3.15601C30.3086 2.95788 27.8291 3.38058 25.565 4.38562C23.3009 5.39066 21.3242 6.9461 19.8149 8.91031C18.3056 10.8745 17.3116 13.1851 16.9235 15.6316C16.5353 18.0782 16.7654 20.5829 17.5927 22.9178C18.4199 25.2527 19.8182 27.3436 21.66 29L28.41 36.6V39.7C28.4131 39.8101 28.4368 39.9187 28.48 40.02C28.519 40.1253 28.5804 40.2209 28.6598 40.3003C28.7391 40.3796 28.8347 40.441 28.94 40.48C29.0413 40.5232 29.1499 40.5469 29.26 40.55H34C34.1132 40.5455 34.2248 40.5219 34.33 40.48C34.4313 40.4391 34.5232 40.3778 34.6 40.3C34.6802 40.2213 34.7417 40.1256 34.78 40.02C34.828 39.9203 34.8519 39.8107 34.85 39.7V36.6L41.56 29C43.0859 27.6004 44.3068 25.9013 45.1464 24.0086C45.9861 22.116 46.4264 20.0705 46.44 18V18ZM18.44 18.38H24.07C24.16 23.87 25.81 28.51 28.25 30.72C25.497 30.0067 23.0508 28.4169 21.2811 26.1908C19.5113 23.9646 18.5141 21.223 18.44 18.38V18.38ZM30.44 4.86001C30.703 4.84013 30.967 4.84013 31.23 4.86001V17.53H24.9C25 11.15 27.34 5.94001 30.39 4.81001L30.44 4.86001ZM38.27 17.58H32V4.76001C32.2663 4.73982 32.5337 4.73982 32.8 4.76001C35.83 5.94001 38.13 11.15 38.22 17.53L38.27 17.58ZM32.78 31C32.5155 31.0418 32.2476 31.0586 31.98 31.05V18.33H38.22C38.13 24.71 35.83 30 32.78 31ZM31.14 18.33V31.09C30.8723 31.0986 30.6045 31.0818 30.34 31.04C27.34 30 25 24.71 24.9 18.33H31.14ZM39.07 18.33H44.75C44.6488 21.1728 43.6355 23.9076 41.8598 26.1299C40.0841 28.3522 37.6404 29.944 34.89 30.67C37.33 28.46 39 23.86 39.07 18.33ZM44.75 17.53H39.07C39 12 37.33 7.44001 34.89 5.19001C37.6451 5.90729 40.0942 7.49674 41.8714 9.7209C43.6485 11.9451 44.6584 14.6845 44.75 17.53V17.53ZM28.23 5.19001C25.79 7.39001 24.14 12.04 24.05 17.53H18.42C18.5022 14.6893 19.5024 11.9516 21.2709 9.72705C23.0394 7.50245 25.481 5.91064 28.23 5.19001ZM33.06 38.88H30.06V37.52H33.06V38.88ZM33.72 35.83H29.4L25.55 31.51C27.4397 32.3465 29.4834 32.7791 31.55 32.78C33.6156 32.7693 35.6572 32.3372 37.55 31.51L33.72 35.83Z" fill="#1D65A1"/>
<path d="M14.71 27.38H10.71C10.4863 27.3826 10.2727 27.4734 10.1154 27.6325C9.95816 27.7916 9.86998 28.0063 9.87 28.23C9.87163 28.455 9.96138 28.6704 10.12 28.83C10.2793 28.9817 10.4901 29.0675 10.71 29.07H14.71C14.933 29.068 15.1471 28.9824 15.31 28.83C15.4686 28.6704 15.5584 28.455 15.56 28.23C15.5603 28.1184 15.5383 28.0079 15.4954 27.9048C15.4525 27.8018 15.3894 27.7084 15.31 27.63C15.1504 27.4714 14.935 27.3816 14.71 27.38Z" fill="#1D65A1"/>
<path d="M13.58 23.07C13.5787 22.9574 13.5584 22.8458 13.52 22.74C13.4791 22.6386 13.4178 22.5467 13.34 22.47C13.2613 22.3898 13.1656 22.3283 13.06 22.29C12.9602 22.242 12.8507 22.2181 12.74 22.22H7.58C7.35456 22.22 7.13836 22.3095 6.97895 22.4689C6.81955 22.6284 6.73 22.8446 6.73 23.07C6.72993 23.1801 6.75203 23.2891 6.79498 23.3904C6.83793 23.4918 6.90085 23.5835 6.98 23.66C7.05838 23.7394 7.15182 23.8024 7.25483 23.8454C7.35785 23.8883 7.46839 23.9103 7.58 23.91H12.74C12.8495 23.9103 12.9581 23.8899 13.06 23.85C13.1663 23.8082 13.2619 23.7433 13.34 23.66C13.42 23.5851 13.4816 23.4927 13.52 23.39C13.56 23.288 13.5803 23.1795 13.58 23.07V23.07Z" fill="#1D65A1"/>
<path d="M11.8 18C11.8003 17.8905 11.78 17.7819 11.74 17.68C11.6982 17.5737 11.6333 17.4781 11.55 17.4C11.4751 17.32 11.3827 17.2584 11.28 17.22C11.1781 17.18 11.0695 17.1597 10.96 17.16H4.24999C4.0266 17.16 3.81176 17.2459 3.64999 17.4C3.49138 17.5596 3.40163 17.775 3.39999 18C3.39999 18.1116 3.42198 18.2222 3.4647 18.3253C3.50741 18.4284 3.57002 18.5221 3.64895 18.601C3.72788 18.68 3.82159 18.7426 3.92471 18.7853C4.02784 18.828 4.13837 18.85 4.24999 18.85H11C11.2194 18.8323 11.4252 18.7365 11.58 18.58C11.7205 18.4193 11.7986 18.2135 11.8 18Z" fill="#1D65A1"/>
</svg>
